<?xml version="1.0" standalone="no"?>
<!DOCTYPE svg PUBLIC "-//W3C//DTD SVG 20010904//EN"
 "http://www.w3.org/TR/2001/REC-SVG-20010904/DTD/svg10.dtd">
<svg version="1.0" xmlns="http://www.w3.org/2000/svg"
 width="1024.000000pt" height="1024.000000pt" viewBox="0 0 1024.000000 1024.000000"
 preserveAspectRatio="xMidYMid meet">
<metadata>
Created by potrace 1.14, written by Peter Selinger 2001-2017
</metadata>
<g transform="translate(0.000000,1024.000000) scale(0.100000,-0.100000)"
fill="#000000" stroke="none">
<path d="M4039 8276 c-2 -2 -38 -6 -79 -10 -42 -3 -107 -13 -145 -20 -39 -8
-83 -17 -100 -19 -50 -8 -214 -58 -308 -93 -541 -206 -1049 -700 -1271 -1237
-75 -181 -133 -403 -152 -577 -3 -36 -8 -78 -10 -95 -1 -16 -4 -94 -5 -172 -3
-140 -3 -142 -27 -148 -41 -10 -264 -117 -342 -164 -331 -198 -633 -533 -799
-886 -61 -129 -128 -335 -146 -445 -3 -19 -10 -60 -16 -90 -12 -67 -26 -281
-23 -370 18 -553 206 -993 588 -1376 147 -146 201 -191 333 -278 221 -145 513
-261 733 -291 25 -3 52 -8 60 -10 8 -2 51 -7 95 -11 99 -10 5461 -11 5565 -1
430 38 792 210 1107 525 103 103 235 268 283 355 113 201 191 414 215 583 3
21 8 50 10 64 23 120 22 402 0 530 -3 14 -7 41 -10 60 -9 53 -53 214 -82 294
-28 78 -124 279 -135 284 -5 2 -8 8 -8 14 0 13 -129 200 -177 258 -241 286
-598 504 -935 570 -38 8 -68 17 -68 20 0 4 9 32 19 63 11 31 22 71 25 89 3 18
10 56 16 83 20 97 28 302 15 410 -38 314 -164 574 -387 796 -208 208 -408 316
-693 375 -92 19 -363 26 -450 12 -183 -30 -354 -90 -487 -168 -36 -22 -69 -40
-71 -40 -3 0 -25 33 -50 73 -25 39 -55 83 -66 96 -12 13 -21 27 -21 30 0 3
-13 20 -28 38 -15 17 -43 51 -62 75 -59 73 -220 230 -310 302 -327 263 -735
441 -1100 481 -30 4 -62 9 -70 12 -16 6 -425 14 -431 9z"/>
</g>
</svg>
